<svg xmlns="http://www.w3.org/2000/svg" width="85" height="85" fill="none" viewBox="0 0 80 80"><g filter="url(#mail_color_svg__a)"><path fill="url(#mail_color_svg__b)" d="M18.095 0h43.81C71.905 0 80 8.095 80 18.095v43.81C80 71.905 71.905 80 61.905 80h-43.81C8.095 80 0 71.905 0 61.905v-43.81C0 8.095 8.095 0 18.095 0"></path><path fill="#fff" d="M66.016 22h-51.59c-.468 0-.91.138-1.295.358l.551.552L36.816 46.07a4.826 4.826 0 0 0 6.81 0L67.34 22.386A2.47 2.47 0 0 0 66.016 22M68.47 24.454c0-.469-.138-.91-.359-1.296l-17.095 17.26 17.15 17.096c.193-.358.303-.772.303-1.185zM12 24.454c0-.469.138-.91.358-1.296l17.096 17.26-17.15 17.096A2.5 2.5 0 0 1 12 56.33z"></path><path fill="#fff" d="m50.107 41.219-5.984 5.983c-2.15 2.15-5.68 2.15-7.83 0l-5.984-5.956-17.178 17.15c.386.221.8.36 1.268.36h51.59c.468 0 .91-.139 1.268-.36l-1.02-1.02z"></path></g><defs><linearGradient id="mail_color_svg__b" x1="40" x2="40" y1="0" y2="80" gradientUnits="userSpaceOnUse"><stop stop-color="#1E51EE"></stop><stop offset="1" stop-color="#19E4FF"></stop></linearGradient><filter id="mail_color_svg__a" width="80" height="81" x="0" y="-1" color-interpolation-filters="sRGB" filterUnits="userSpaceOnUse"><feFlood flood-opacity="0" result="BackgroundImageFix"></feFlood><feBlend in="SourceGraphic" in2="BackgroundImageFix" result="shape"></feBlend><feColorMatrix in="SourceAlpha" result="hardAlpha" values="0 0 0 0 0 0 0 0 0 0 0 0 0 0 0 0 0 0 127 0"></feColorMatrix><feOffset dy="-1"></feOffset><feGaussianBlur stdDeviation="0.5"></feGaussianBlur><feComposite in2="hardAlpha" k2="-1" k3="1" operator="arithmetic"></feComposite><feColorMatrix values="0 0 0 0 0 0 0 0 0 0 0 0 0 0 0 0 0 0 0.12 0"></feColorMatrix><feBlend in2="shape" result="effect1_innerShadow"></feBlend></filter></defs></svg>