<svg xmlns="http://www.w3.org/2000/svg" width="85" height="85" fill="none" viewBox="0 0 80 80"><g filter="url(#messages_color_svg__a)"><path fill="url(#messages_color_svg__b)" d="M18.095 0h43.81C71.905 0 80 8.095 80 18.095v43.81C80 71.905 71.905 80 61.905 80h-43.81C8.095 80 0 71.905 0 61.905v-43.81C0 8.095 8.095 0 18.095 0"></path><path fill="#fff" fill-rule="evenodd" d="M40 61.186c16.016 0 29-10.563 29-23.593S56.016 14 40 14 11 24.563 11 37.593c0 8.655 5.728 16.22 14.267 20.326.107 1.874-.626 5.675-4.436 7.2 2.415.16 8.154-1.42 11.617-4.74a35.3 35.3 0 0 0 7.552.807" clip-rule="evenodd"></path></g><defs><linearGradient id="messages_color_svg__b" x1="40" x2="40" y1="0" y2="80" gradientUnits="userSpaceOnUse"><stop stop-color="#8BFB6B"></stop><stop offset="1" stop-color="#19DB1C"></stop></linearGradient><filter id="messages_color_svg__a" width="80" height="81" x="0" y="-1" color-interpolation-filters="sRGB" filterUnits="userSpaceOnUse"><feFlood flood-opacity="0" result="BackgroundImageFix"></feFlood><feBlend in="SourceGraphic" in2="BackgroundImageFix" result="shape"></feBlend><feColorMatrix in="SourceAlpha" result="hardAlpha" values="0 0 0 0 0 0 0 0 0 0 0 0 0 0 0 0 0 0 127 0"></feColorMatrix><feOffset dy="-1"></feOffset><feGaussianBlur stdDeviation="0.5"></feGaussianBlur><feComposite in2="hardAlpha" k2="-1" k3="1" operator="arithmetic"></feComposite><feColorMatrix values="0 0 0 0 0 0 0 0 0 0 0 0 0 0 0 0 0 0 0.12 0"></feColorMatrix><feBlend in2="shape" result="effect1_innerShadow"></feBlend></filter></defs></svg>